<?xml version="1.0" standalone="no"?><!DOCTYPE svg PUBLIC "-//W3C//DTD SVG 1.1//EN" "http://www.w3.org/Graphics/SVG/1.1/DTD/svg11.dtd"><svg t="1613471019945" class="icon" viewBox="0 0 1024 1024" version="1.1" xmlns="http://www.w3.org/2000/svg" p-id="3794" xmlns:xlink="http://www.w3.org/1999/xlink" width="200" height="200"><defs><style type="text/css"></style></defs><path d="M510.89 943.11c-24.83 0-47.75-8.97-64.22-25.43L188.33 659.34c-19.16-19.16-28.16-47.05-24.71-76.53 3.18-27.15 16.39-53.55 37.18-74.34l364.55-364.55c6-6 14.15-9.33 22.63-9.22l349 3.96c17.14 0.19 30.98 14.06 31.14 31.21l3.19 348.23c0.08 8.45-3.25 16.58-9.23 22.56L597.54 905.21c-20.79 20.79-47.19 33.99-74.34 37.18-4.14 0.48-8.25 0.72-12.31 0.72z m89.64-745.27L245.35 553.02c-10.65 10.65-17.63 24.19-19.15 37.13-0.7 6-0.77 17.19 6.68 24.65l258.34 258.34c7.46 7.46 18.64 7.39 24.65 6.68 12.94-1.52 26.47-8.5 37.13-19.15l355.2-355.2-2.79-304.16-304.88-3.47z" p-id="3795"></path><path d="M315.8 885.6c-8.06 0-16.12-3.08-22.27-9.23L81.04 663.89c-19.96-19.96-30.2-48.51-28.07-78.33 2.03-28.57 14.81-55.96 35.97-77.12L373.58 223.8c12.3-12.3 32.25-12.3 44.55 0 12.3 12.3 12.3 32.25 0 44.55L133.48 552.98c-10.29 10.29-16.73 23.79-17.67 37.04-0.84 11.76 2.64 22.17 9.78 29.31l212.49 212.49c12.3 12.3 12.3 32.25 0 44.55-6.16 6.16-14.22 9.23-22.28 9.23zM679.69 539.98c-29.12 0-58.24-11.08-80.41-33.25-21.48-21.48-33.31-50.03-33.31-80.41s11.83-58.93 33.31-80.41c44.34-44.33 116.48-44.34 160.81 0s44.34 116.48 0 160.81c-22.16 22.18-51.28 33.26-80.4 33.26z m58.13-55.52z m-58.13-108.83c-12.99 0-25.97 4.94-35.86 14.83-9.58 9.58-14.85 22.31-14.85 35.86s5.28 26.28 14.85 35.86c19.77 19.77 51.95 19.77 71.72 0 19.77-19.77 19.77-51.95 0-71.72-9.89-9.88-22.88-14.83-35.86-14.83z" p-id="3796"></path></svg>