<?xml version="1.0" standalone="no"?><!DOCTYPE svg PUBLIC "-//W3C//DTD SVG 1.1//EN" "http://www.w3.org/Graphics/SVG/1.1/DTD/svg11.dtd"><svg t="1613470998111" class="icon" viewBox="0 0 1024 1024" version="1.1" xmlns="http://www.w3.org/2000/svg" p-id="2817" xmlns:xlink="http://www.w3.org/1999/xlink" width="200" height="200"><defs><style type="text/css"></style></defs><path d="M718 216h-376a64 64 0 0 0-64 64v24h28a24 24 0 0 1 0 48h-28v16h28a24 24 0 0 1 0 48h-28v16h28a24 24 0 0 1 0 48h-28v264a64 64 0 0 0 64 64h376a64 64 0 0 0 64-64V280a64 64 0 0 0-64-64z m13.6 445.92v24h-41.36v18.48h41.36v24.56h-41.36v33.76h-37.36v-33.52h-42.72v-24.56h42.8v-18.4h-42.8v-24h34.4l-45.92-80.8h40q27.12 56 34.32 74h0.8c0.64-1.68 1.36-3.84 2.24-6.48q2.08-6.24 16.96-36.64l14.72-30.88h37.84l-47.2 80.8z" p-id="2818"></path><path d="M258 344h48a16 16 0 0 0 0-32h-48a16 16 0 0 0 0 32zM258 408h48a16 16 0 0 0 0-32h-48a16 16 0 0 0 0 32zM322 456a16 16 0 0 0-16-16h-48a16 16 0 0 0 0 32h48a16 16 0 0 0 16-16z" p-id="2819"></path></svg>